<?xml version="1.0" encoding="UTF-8"?>
<svg id="Layer_4" data-name="Layer 4" xmlns="http://www.w3.org/2000/svg" viewBox="0 0 16 16">
  <defs>
    <style>
      .cls-1 {
        fill: #1c75bc;
      }
    </style>
  </defs>
  <path class="cls-1" d="M1.59,3c0-.32.25-.58.57-.58s.57.26.57.58v5.06l2.13-1.24v-.05c0-.62.5-1.12,1.12-1.12s1.11.5,1.11,1.12c0,.06,0,.12-.01.18l1.22,1.03c.15-.08.33-.12.51-.12.26,0,.5.09.69.23l2.63-1.58c-.01-.07-.02-.15-.02-.22,0-.62.5-1.12,1.12-1.12s1.12.5,1.12,1.12-.5,1.12-1.12,1.12c-.23,0-.45-.08-.63-.2l-2.68,1.61c0,.05.01.11.01.15,0,.62-.5,1.12-1.12,1.12s-1.11-.5-1.11-1.12c0-.13.02-.26.06-.38l-1.1-.94c-.19.15-.43.23-.68.23-.3,0-.56-.12-.76-.3l-2.48,1.44v3.19c0,.12.04.16.16.16h10.93c.32,0,.58.25.58.57s-.26.57-.58.57H2.09c-.3,0-.5-.2-.5-.5V3Z"/>
</svg>