<?xml version="1.0" encoding="UTF-8"?>
<svg id="Layer_4" data-name="Layer 4" xmlns="http://www.w3.org/2000/svg" viewBox="0 0 48 48">
  <defs>
    <style>
      .cls-1 {
        fill: #231f20;
      }
    </style>
  </defs>
  <path class="cls-1" d="M26.12,24l5.89-5.89c.59-.59.59-1.54,0-2.12-.59-.59-1.54-.59-2.12,0l-5.89,5.89-5.89-5.89c-.59-.59-1.54-.59-2.12,0-.59.59-.59,1.54,0,2.12l5.89,5.89-5.89,5.89c-.59.59-.59,1.54,0,2.12s1.54.59,2.12,0l5.89-5.89,5.89,5.89c.59.59,1.54.59,2.12,0s.59-1.54,0-2.12l-5.89-5.89Z"/>
</svg>