<?xml version="1.0" encoding="UTF-8"?>
<svg xmlns="http://www.w3.org/2000/svg" xmlns:xlink="http://www.w3.org/1999/xlink" viewBox="0 0 121.78 118.76">
  <defs>
    <style>
      .cls-1 {
        fill: #f9b353;
      }

      .cls-2 {
        fill: url(#radial-gradient);
      }
    </style>
    <radialGradient id="radial-gradient" cx="57.51" cy="56.87" fx="32.15" fy="56.87" r="55" gradientUnits="userSpaceOnUse">
      <stop offset="0" stop-color="#3cb7ea"/>
      <stop offset=".02" stop-color="#3ab5e8"/>
      <stop offset="1" stop-color="#0378b3"/>
    </radialGradient>
  </defs>
  <g id="Layer_3" data-name="Layer 3">
    <circle class="cls-2" cx="61" cy="60.39" r="55"/>
  </g>
  <g id="Layer_4" data-name="Layer 4">
    <path class="cls-1" d="M49,7.39s-4,0-6,1-6,2-6,5,0,6-1,7-2,2-4,6c-1.84,3.69-2,9-1,11s5,2,5,4,0,5,1,6l4,4c3,3,6,7,7,7s3,2,6,3,9,7,9,7c0,0,1,3,0,5s-3,2-3,5,1,2,2,5,1,4,3,5,2,3,2,5,1,2,0,4-3,6-3,7-5,9-5,9c0,0,8-3,11-5s4-1,6-3,5-4,7-5,5-5,6-6,5-3,5-5,4-5,4-6-3-7-4-8-3-3-5-4-7-5-10-5-5-2-7-2-3,1-5,0-8-1-8-4,1-4-1-6-5-3-6-4-4-5-2-6,3-3,7-3q2,0,3,3c.71,2.12,1,5,2,5s2-1,2-3-1-4,1-5,4-5,5-7,8-2,8-5-1-6-1-8-3-2-5-4-4,3-8,2-4-5-6-7c-.99-.99-3.01-2-5-3s-4-2-4-2Z"/>
  </g>
</svg>