<?xml version="1.0" encoding="UTF-8"?>
<svg xmlns="http://www.w3.org/2000/svg" viewBox="0 0 120 120">
  <defs>
    <style>
      .cls-1 {
        fill: #010101;
      }

      .cls-2 {
        fill: #616363;
      }

      .cls-3 {
        fill: #7e8ea5;
      }

      .cls-4 {
        fill: #9e9e9e;
      }

      .cls-5 {
        fill: #f37826;
      }

      .cls-6 {
        fill: #eef2f8;
      }

      .cls-7 {
        fill: #777778;
      }
    </style>
  </defs>
  <g id="Layer_3" data-name="Layer 3">
    <g>
      <circle class="cls-6" cx="60.22" cy="60.37" r="54"/>
      <path class="cls-3" d="M60.22,115.37c-30.33,0-55-24.67-55-55S29.89,5.37,60.22,5.37s55,24.67,55,55-24.67,55-55,55ZM60.22,7.37C31,7.37,7.22,31.15,7.22,60.37s23.78,53,53,53,53-23.78,53-53S89.44,7.37,60.22,7.37Z"/>
    </g>
  </g>
  <g id="Layer_2" data-name="Layer 2">
    <circle class="cls-7" cx="84.64" cy="23.57" r="5.09"/>
    <circle class="cls-2" cx="29.85" cy="30.06" r="3.79"/>
    <circle class="cls-4" cx="35.24" cy="95.92" r="6.39"/>
    <path class="cls-5" d="M29.21,46.25s9.6-20.4,30.01-20.4,32.41,20.4,32.41,20.4c0,0-12-10.8-32.41-10.8s-30.01,10.8-30.01,10.8Z"/>
    <path class="cls-5" d="M29.21,71.45s13.2,10.8,31.2,10.8,30.01-10.8,30.01-10.8c0,0-8.4,20.4-31.2,20.4-20.4,0-30.01-20.4-30.01-20.4Z"/>
    <g>
      <path class="cls-1" d="M23.8,67.76c.91-.07,1.71-.32,2.19-.84.55-.64.76-1.5.76-4.15v-9.23h2.01v10.01c0,2.14-.34,3.53-1.32,4.54-.89.89-2.35,1.25-3.42,1.25l-.2-1.57h0Z"/>
      <path class="cls-1" d="M41.86,61.56c0,1.14.03,2.14.09,3.01h-1.78l-.12-1.8h-.04c-.52.89-1.69,2.05-3.65,2.05-1.73,0-3.81-.96-3.81-4.83v-6.45h2.01v6.11c0,2.1.64,3.51,2.46,3.51,1.34,0,2.28-.93,2.64-1.82.12-.29.18-.66.18-1.02v-6.77h2.01v8.02h0Z"/>
      <path class="cls-1" d="M45.79,57.14c0-1.41-.04-2.55-.09-3.6h1.8l.09,1.89h.04c.82-1.34,2.12-2.14,3.92-2.14,2.67,0,4.68,2.26,4.68,5.61,0,3.97-2.42,5.93-5.02,5.93-1.46,0-2.74-.64-3.4-1.73h-.04v6h-1.98v-11.95h0ZM47.77,60.09c0,.29.04.57.09.82.36,1.39,1.57,2.35,3.01,2.35,2.12,0,3.35-1.73,3.35-4.26,0-2.21-1.16-4.11-3.28-4.11-1.37,0-2.64.98-3.03,2.49-.07.25-.13.55-.13.82,0,0,0,1.89,0,1.89Z"/>
      <path class="cls-1" d="M59.93,53.54l2.42,6.52c.25.73.52,1.6.7,2.26h.04c.2-.66.44-1.5.7-2.3l2.19-6.48h2.12l-3.01,7.86c-1.43,3.79-2.42,5.73-3.79,6.91-.98.87-1.96,1.21-2.46,1.3l-.5-1.69c.5-.16,1.16-.48,1.75-.98.55-.44,1.23-1.21,1.69-2.23.09-.2.16-.36.16-.48s-.04-.28-.13-.52l-4.08-10.17h2.19Z"/>
      <path class="cls-1" d="M72.95,50.37v3.17h2.87v1.53h-2.87v5.95c0,1.37.39,2.14,1.5,2.14.52,0,.91-.07,1.16-.13l.09,1.5c-.39.16-1,.28-1.78.28-.93,0-1.69-.29-2.17-.84-.57-.6-.77-1.57-.77-2.87v-6.02h-1.71v-1.53h1.71v-2.64l1.96-.52h0Z"/>
      <path class="cls-1" d="M79.65,59.42c.04,2.71,1.78,3.83,3.79,3.83,1.43,0,2.3-.25,3.05-.57l.34,1.44c-.7.32-1.91.68-3.67.68-3.4,0-5.43-2.23-5.43-5.57s1.96-5.95,5.18-5.95c3.6,0,4.56,3.17,4.56,5.2,0,.41-.04.73-.07.93h-7.75,0ZM85.53,57.99c.03-1.27-.52-3.26-2.78-3.26-2.03,0-2.92,1.87-3.08,3.26h5.86Z"/>
      <path class="cls-1" d="M90.55,56.98c0-1.3-.02-2.42-.09-3.44h1.75l.07,2.17h.09c.5-1.48,1.71-2.42,3.06-2.42.23,0,.39.02.57.07v1.89c-.2-.04-.41-.07-.68-.07-1.41,0-2.42,1.07-2.69,2.58-.04.28-.09.6-.09.93v5.88h-1.98v-7.59Z"/>
    </g>
  </g>
</svg>