<?xml version="1.0" encoding="UTF-8"?>
<svg xmlns="http://www.w3.org/2000/svg" viewBox="0 0 120 120">
  <defs>
    <style>
      .cls-1 {
        fill: #fff;
      }

      .cls-2 {
        fill: #436ba5;
      }
    </style>
  </defs>
  <g id="Layer_3" data-name="Layer 3">
    <g>
      <circle class="cls-2" cx="60.22" cy="60.37" r="54"/>
      <path class="cls-2" d="M60.22,115.37c-30.33,0-55-24.67-55-55S29.89,5.37,60.22,5.37s55,24.67,55,55-24.67,55-55,55ZM60.22,7.37C31,7.37,7.22,31.15,7.22,60.37s23.78,53,53,53,53-23.78,53-53S89.44,7.37,60.22,7.37Z"/>
    </g>
  </g>
  <g id="Layer_4" data-name="Layer 4">
    <path class="cls-1" d="M36.95,68.21c0,.59-.03,1.56-.1,2.91h-.37c-.14,0-.46-.02-.98-.07-.52-.05-1.1-.07-1.76-.07l-14.04-.1c-.38,0-.57-.1-.57-.3,0-.16.3-.26.91-.3.86-.04,1.37-.14,1.54-.29.17-.15.25-.57.25-1.27v-19.01c0-.83-.08-1.32-.25-1.45-.17-.14-.77-.2-1.81-.2-.43,0-.64-.12-.64-.37,0-.2.14-.3.41-.3h.3c.74.07,2.22.1,4.43.1.2,0,.6-.02,1.18-.05.59-.03,1.07-.05,1.45-.05h.37c.41,0,.61.11.61.34,0,.14-.06.22-.19.25-.12.03-.51.06-1.17.08-.65.02-1.04.13-1.17.32-.12.19-.19.78-.19,1.78v19.96c.61.02,1.45.03,2.54.03,2.64,0,4.5-.14,5.58-.41,1.08-.27,1.81-.78,2.2-1.52.38-.74.61-1.75.68-3.01.02-.29.15-.44.39-.44.28,0,.41.17.39.51v2.94Z"/>
    <path class="cls-1" d="M43.52,63.38c0,.14-.12.21-.36.21-.16,0-.31,0-.44-.02l-3.07-.1-3.07.1c-.11.02-.23.02-.36.02-.32,0-.48-.08-.48-.25,0-.19.22-.28.65-.28,1.42-.02,2.13-.16,2.13-.43,0-.02-.02-.08-.05-.19l-.2-.64-.12-.34c-.15-.5-.5-1.6-1.06-3.31h-5.16c-.97,2.58-1.45,4.06-1.45,4.45,0,.23.1.36.29.41.05.02.45.05,1.21.1.47.02.7.1.7.24,0,.16-.21.24-.63.24-.74,0-1.6-.03-2.59-.1-.24-.02-.49-.02-.75-.02s-.51.03-.75.08c-.13.03-.23.04-.31.04-.23,0-.34-.07-.34-.22s.25-.23.76-.24.87-.09,1.1-.23c.23-.14.4-.4.53-.79,2.07-5.95,3.76-10.72,5.06-14.33.04-.19.11-.4.22-.64l.1-.44c.05-.18.11-.27.19-.27.05,0,.09.05.12.15.21.63.68,1.94,1.43,3.94.58,1.56,2.02,5.48,4.32,11.77.13.36.29.6.5.7.2.1.62.16,1.24.17.42.02.63.09.63.23ZM36.97,57.59c-.26-.73-.7-1.93-1.3-3.6l-1.16-3.35c-.68,1.78-1.5,4.1-2.45,6.95h4.91Z"/>
    <path class="cls-1" d="M63.31,53.33c0,.29-.14.44-.41.44s-.46-.29-.57-.88c-.05-.41-.09-.81-.14-1.22-.16-.81-.42-1.5-.78-2.06-.47-.74-1.25-1.22-2.33-1.42-.7-.14-1.26-.19-1.69-.17-1.06.03-1.7.05-1.93.07v20.43c0,.81.21,1.32.64,1.52.23.11.86.18,1.89.2.27.02.41.12.41.29,0,.19-.18.29-.54.29-.18,0-.34-.01-.47-.03-1.35-.04-2.31-.07-2.88-.07-.74,0-1.44.02-2.1.05-.65.03-1.49.05-2.5.05-.52,0-.78-.09-.78-.27,0-.2.48-.32,1.45-.34.7,0,1.15-.15,1.35-.44.11-.18.17-.64.17-1.39v-20.29c-2.23.02-3.62.14-4.16.34-1.42.52-2.26,1.91-2.5,4.16-.07.68-.23,1.02-.47,1.02-.27,0-.41-.24-.41-.71,0-.25.01-.5.03-.74l.07-.78c.07-1.04.17-2.4.3-4.09h1.52l6.9.1c.81.02,2.07.02,3.79,0l5.62-.1c.04,1.26.19,3.13.44,5.61,0,.07.01.15.03.25.02.1.03.16.03.19Z"/>
    <path class="cls-1" d="M80.35,73.39c0,.09-.02.64-.07,1.66-.05,1.02-.07,1.98-.07,2.91v1.12c-2.21-.14-6.58-.2-13.12-.2h-4.23c-.43,0-.64-.09-.64-.27,0-.12.07-.19.2-.21.07,0,.5-.03,1.29-.09.59-.04.94-.17,1.07-.37.12-.2.19-.73.19-1.59v-19.07c0-.66-.1-1.05-.29-1.17-.19-.12-.81-.19-1.84-.19-.36,0-.54-.1-.54-.29s.25-.29.74-.29h14.34c.68,0,1.3-.04,1.86-.14.04.97.15,2.31.3,4.02l.14,1.45c.02.11.03.26.03.44,0,.23-.1.34-.3.34-.25,0-.43-.28-.54-.85-.43-2.04-1.13-3.34-2.1-3.88-.72-.41-2.62-.61-5.68-.61h-2.77v9.94h.81c2.52,0,4.06-.19,4.62-.58.55-.38.93-1.5,1.13-3.35.04-.47.17-.71.37-.71.25,0,.37.2.37.61s-.02,1-.07,1.79c-.05.79-.07,1.39-.07,1.79,0,2.41.04,4.07.11,4.97.02.23.03.42.03.57,0,.29-.12.44-.37.44-.16,0-.26-.1-.32-.29-.06-.19-.15-.82-.29-1.88-.18-1.33-.73-2.15-1.65-2.47-.4-.14-1.46-.2-3.17-.2h-1.52v11.33c4.96,0,7.87-.1,8.73-.3,1.49-.33,2.33-1.76,2.54-4.28.04-.56.19-.84.44-.84.23,0,.34.24.34.71Z"/>
    <path class="cls-1" d="M103.32,70.48c0,.2-.32.3-.95.3h-9.61c-.65,0-.98-.1-.98-.32,0-.2.26-.28.78-.26h1.52c.54.02.87.01.98-.03.34-.07.51-.28.51-.65,0-.34-.28-1.08-.84-2.23l-3.6-7.3-4.27,7.21c-.76,1.29-1.14,2.05-1.14,2.27,0,.41.37.65,1.12.72-.05,0,.46,0,1.52,0,.41,0,.61.1.61.3,0,.18-.17.27-.51.27h-6.7c-.36,0-.54-.1-.54-.3s.29-.34.88-.41c.41-.04.81-.09,1.22-.14.34-.09.62-.24.85-.44.43-.38,1.81-2.59,4.16-6.62.85-1.49,1.61-2.78,2.28-3.89l-3.84-7.25c-.79-1.49-1.34-2.45-1.64-2.89-.3-.44-.63-.73-.96-.86-.36-.07-1.07-.1-2.13-.1-.27,0-.41-.09-.41-.27,0-.25.18-.37.54-.37.5,0,1.52.02,3.08.07.77.02,1.3.03,1.59.03,2.64,0,4.09-.03,4.36-.1h.47c.47,0,.71.09.71.27,0,.25-.4.37-1.19.37-1.48-.02-2.22.16-2.22.54,0,.41,1.27,3.06,3.83,7.94.92-1.36,1.92-2.97,3.02-4.84,1.1-1.87,1.64-2.91,1.64-3.14,0-.34-.62-.51-1.86-.51-.61,0-.91-.1-.91-.31,0-.23.21-.34.64-.34.29,0,.72.02,1.29.05.56.03.99.05,1.29.05.11,0,.64-.02,1.57-.05.94-.03,1.48-.05,1.64-.05h.3c.38,0,.58.1.58.29s-.15.29-.44.29c-.05,0-.41.01-1.08.03-.77.02-1.29.16-1.57.41-.28.25-.76.97-1.44,2.17-.88,1.58-2.16,3.68-3.86,6.28l-.37.58c.16.29,1.68,3.26,4.57,8.9.99,1.94,1.7,3.09,2.13,3.47.43.37,1.27.55,2.54.52.56,0,.85.1.85.3Z"/>
  </g>
</svg>