<?xml version="1.0" encoding="UTF-8"?>
<svg xmlns="http://www.w3.org/2000/svg" viewBox="0 0 146.36 139.16">
  <defs>
    <style>
      .cls-1 {
        fill: #2b5f99;
      }

      .cls-2 {
        fill: #fff;
      }

      .cls-3 {
        fill: #647284;
      }
    </style>
  </defs>
  <g id="Layer_5" data-name="Layer 5">
    <g>
      <rect class="cls-2" x="26" y="7.16" width="113" height="126" rx="5" ry="5"/>
      <path class="cls-3" d="M134,134.16H31c-3.31,0-6-2.69-6-6V12.16c0-3.31,2.69-6,6-6h103c3.31,0,6,2.69,6,6v116c0,3.31-2.69,6-6,6ZM31,8.16c-2.21,0-4,1.79-4,4v116c0,2.21,1.79,4,4,4h103c2.21,0,4-1.79,4-4V12.16c0-2.21-1.79-4-4-4H31Z"/>
    </g>
  </g>
  <g id="Layer_3" data-name="Layer 3">
    <rect class="cls-1" x="11" y="55.16" width="111" height="56" rx="7" ry="7"/>
  </g>
  <g id="Layer_4" data-name="Layer 4">
    <g>
      <path class="cls-2" d="M34.21,103.65c-3.5,0-6.55-.77-9.13-2.31-2.58-1.54-4.57-3.73-5.97-6.56s-2.09-6.2-2.09-10.09v-.03c0-3.89.7-7.25,2.11-10.08,1.4-2.83,3.39-5.01,5.97-6.54,2.57-1.53,5.61-2.3,9.12-2.3,2.81,0,5.33.54,7.55,1.62,2.23,1.08,4.04,2.58,5.45,4.49,1.4,1.91,2.27,4.11,2.59,6.6l.03.25h-6.42l-.13-.48c-.36-1.41-.94-2.62-1.75-3.63s-1.84-1.8-3.07-2.36c-1.24-.56-2.65-.84-4.24-.84-2.13,0-3.99.54-5.56,1.62s-2.79,2.61-3.66,4.58c-.86,1.97-1.29,4.32-1.29,7.05v.03c0,2.71.43,5.06,1.29,7.05s2.09,3.53,3.67,4.62c1.58,1.09,3.43,1.64,5.55,1.64,1.56,0,2.95-.28,4.18-.83,1.23-.55,2.26-1.35,3.11-2.4.85-1.05,1.46-2.33,1.85-3.83l.08-.25h6.42l-.05.28c-.3,2.49-1.16,4.69-2.56,6.6-1.41,1.91-3.22,3.41-5.46,4.48s-4.76,1.61-7.57,1.61Z"/>
      <path class="cls-2" d="M66.64,103.65c-2.81,0-5.26-.42-7.36-1.27s-3.75-2.06-4.96-3.63c-1.21-1.57-1.89-3.45-2.04-5.64l-.03-.38h6.25l.05.3c.19,1.05.64,1.96,1.37,2.72s1.69,1.35,2.88,1.76,2.55.62,4.08.62,2.87-.21,4-.63,1.99-1.03,2.6-1.82.91-1.71.91-2.75v-.03c0-1.37-.51-2.45-1.54-3.25s-2.72-1.45-5.09-1.96l-3.94-.81c-3.59-.75-6.28-1.97-8.07-3.67-1.79-1.7-2.69-3.91-2.69-6.64v-.03c.02-2.17.6-4.06,1.76-5.67,1.16-1.62,2.76-2.88,4.81-3.78,2.05-.91,4.38-1.36,7.01-1.36s4.99.44,6.98,1.32c2,.88,3.57,2.11,4.71,3.68s1.77,3.4,1.89,5.48l.03.43h-6.25l-.05-.33c-.15-1.07-.55-1.98-1.19-2.73-.64-.75-1.49-1.33-2.54-1.74s-2.26-.61-3.63-.61-2.65.21-3.69.62c-1.04.42-1.84.99-2.41,1.74s-.85,1.61-.85,2.59v.03c0,1.29.52,2.33,1.56,3.14,1.04.8,2.66,1.43,4.86,1.89l3.94.81c2.56.52,4.64,1.24,6.25,2.13s2.8,2.02,3.57,3.38,1.16,2.98,1.16,4.88v.03c0,2.27-.57,4.24-1.71,5.92s-2.78,2.97-4.93,3.88-4.7,1.37-7.68,1.37Z"/>
      <path class="cls-2" d="M94.77,103.01l-12.72-36.64h7.13l9.29,29.66h.13l9.32-29.66h7.13l-12.72,36.64h-7.57Z"/>
    </g>
  </g>
</svg>