<?xml version="1.0" encoding="UTF-8"?>
<svg xmlns="http://www.w3.org/2000/svg" viewBox="0 0 120 120">
  <defs>
    <style>
      .cls-1 {
        fill: #dfeaf7;
      }

      .cls-2 {
        fill: #eb1a3e;
      }

      .cls-3 {
        fill: #7e8ea5;
      }
    </style>
  </defs>
  <g id="Layer_2" data-name="Layer 2">
    <g>
      <circle class="cls-1" cx="60" cy="60" r="54"/>
      <path class="cls-3" d="M60,115c-30.33,0-55-24.67-55-55S29.67,5,60,5s55,24.67,55,55-24.67,55-55,55ZM60,7C30.78,7,7,30.78,7,60s23.78,53,53,53,53-23.78,53-53S89.22,7,60,7Z"/>
    </g>
  </g>
  <g id="Layer_1" data-name="Layer 1">
    <path class="cls-2" d="M96.45,67.25c-1.82-1.09-5.64-1.28-9.39-1.34-3.76-.06-9.39.54-9.39.54,0,0-1.61-.87-2.68-1.61-1.08-.74-3.4-2.34-6.44-5.38-2.96-2.96-3.82-5.47-5.37-8.6-1.55-3.14-2.68-6.99-2.68-6.99,0,0,.74-4.97.81-7.26.07-2.29,0-8.33,0-8.33h-.54s-.32,2.95-.81,5.65c-.48,2.7-1.07,5.11-1.07,5.11,0,0-.57-2.52-.81-3.76-.24-1.25-.82-5.88-.54-7.8.29-1.92,1.34-4.57,1.34-4.57,0,0,.62.58,1.34,1.61.72,1.03.81,2.42.81,2.42,0,0,.59-.77.81-1.34.22-.57-.17-1.57-.27-2.15-.1-.58-1.15-1.31-1.61-1.34-.46-.03-2.68,0-2.68,0,0,0-2.2-.01-2.15,7.53.04,5.94,2.42,15.06,2.42,15.06,0,0-.64,1.73-.81,2.42-.16.69-1.55,4.19-2.15,5.91-.6,1.73-2.82,7.05-3.49,8.6-.66,1.55-2.18,4.11-3.22,6.45-1.04,2.35-4.47,8.25-5.37,9.95-.9,1.69-3.32,5.33-4.56,6.99-1.24,1.66-2.72,3.57-4.29,5.11-1.57,1.54-4.56,2.42-4.56,2.42,0,0,.35-2.09,1.07-3.23.72-1.14,1.16-1.92,3.22-4.57,2.06-2.65,6.98-6.18,6.98-6.18l-.27-.54s-1.66.79-2.15,1.08c-.48.28-3,2.02-4.29,2.96-1.29.93-4.45,4.01-5.64,5.65-1.19,1.64-1.3,3.83-1.07,4.57.23.74,2.09,1.47,2.95,1.88.86.41,3.17-.65,4.29-1.34s4.59-4.69,6.98-7.8c2.39-3.11,6.17-9.68,6.17-9.68,0,0,9.09-2.71,15.03-4.03,5.94-1.32,14.23-2.15,14.23-2.15,0,0,2.77,1.58,4.03,2.15,1.26.57,3.78,1.4,5.37,1.88,1.59.48,5.45,1.3,7.25,1.34,1.8.04,3.12-.27,4.03-.81.91-.54.81-1.34.81-1.34,0,0-1.02.29-3.22.27-2.2-.02-2.86-.5-6.17-1.34-3.32-.84-6.17-2.69-6.17-2.69,0,0,5.84.11,8.86.27,3.01.16,3.22.5,5.37,1.34,1.98.78,1.46,1.49,1.36,1.6.04-.04.32-.34.52-.79.22-.48.23-.67.27-1.34.04-.67-.59-1.33-2.42-2.42ZM61.29,69.67c-6.83,1.98-13.42,4.57-13.42,4.57,0,0,4-6.47,6.44-12.1,2.44-5.63,4.83-12.64,4.83-12.64,0,0,2.88,6.19,5.1,9.14,2.22,2.95,3.51,4.29,4.56,5.11,1.05.82,4.29,3.5,4.29,3.5,0,0-4.98.44-11.81,2.42Z"/>
  </g>
</svg>