<?xml version="1.0" encoding="UTF-8"?>
<svg id="Layer_2" data-name="Layer 2" xmlns="http://www.w3.org/2000/svg" viewBox="0 0 236.07 230.4">
  <defs>
    <style>
      .cls-1 {
        fill: #231f20;
      }
    </style>
  </defs>
  <path class="cls-1" d="M118.04,69.47c-4,22.67-17.33,36-40,40,22.67,4,36,17.33,40,40,4-22.67,17.33-36,40-40-22.67-4-36-17.33-40-40Z"/>
  <path class="cls-1" d="M135.25,203.11L41.91,109.77,135.25,16.44l93.34,93.34-93.34,93.34ZM58.88,109.77l76.37,76.37,76.37-76.37-76.37-76.37L58.88,109.77Z"/>
  <path class="cls-1" d="M100.25,203.11L6.91,109.77,100.25,16.44l93.34,93.34-93.34,93.34ZM23.88,109.77l76.37,76.37,76.37-76.37L100.25,33.41,23.88,109.77Z"/>
</svg>