<?xml version="1.0" encoding="UTF-8"?>
<svg id="Layer_2" data-name="Layer 2" xmlns="http://www.w3.org/2000/svg" viewBox="0 0 1920 1080">
  <defs>
    <style>
      .cls-1 {
        fill: #231f20;
      }
    </style>
  </defs>
  <path class="cls-1" d="M664.76,492.22c-4,22.67-17.33,36-40,40,22.67,4,36,17.33,40,40,4-22.67,17.33-36,40-40-22.67-4-36-17.33-40-40Z"/>
  <path class="cls-1" d="M681.98,623.38c-1.54,0-3.07-.59-4.24-1.76l-84.85-84.85c-1.13-1.12-1.76-2.65-1.76-4.24s.63-3.12,1.76-4.24l84.85-84.85c1.13-1.12,2.65-1.76,4.24-1.76s3.12.63,4.24,1.76l84.85,84.85c1.12,1.13,1.76,2.65,1.76,4.24s-.63,3.12-1.76,4.24l-84.85,84.85c-1.17,1.17-2.71,1.76-4.24,1.76ZM605.61,532.53l76.37,76.37,76.37-76.37-76.37-76.37-76.37,76.37Z"/>
  <path class="cls-1" d="M646.98,623.38c-1.54,0-3.07-.59-4.24-1.76l-84.85-84.85c-1.13-1.12-1.76-2.65-1.76-4.24s.63-3.12,1.76-4.24l84.85-84.85c1.13-1.12,2.65-1.76,4.24-1.76s3.12.63,4.24,1.76l84.85,84.85c1.12,1.13,1.76,2.65,1.76,4.24s-.63,3.12-1.76,4.24l-84.85,84.85c-1.17,1.17-2.71,1.76-4.24,1.76ZM570.61,532.53l76.37,76.37,76.37-76.37-76.37-76.37-76.37,76.37Z"/>
</svg>