<?xml version="1.0" encoding="UTF-8"?>
<svg xmlns="http://www.w3.org/2000/svg" viewBox="0 0 16 16">
  <defs>
    <style>
      .cls-1 {
        fill: #1c75bc;
      }
    </style>
  </defs>
  <g id="sparkle1">
    <path class="cls-1" d="M5.5,10.5c-.23,0-.43-.15-.48-.37,0-.02-.47-1.79-1.38-2.7s-2.75-1.44-2.77-1.44c-.21-.06-.36-.25-.36-.47,0-.22.13-.42.34-.49.02,0,2-.67,2.86-1.52.84-.85,1.31-2.61,1.31-2.63.06-.22.26-.38.48-.38h0c.23,0,.43.16.48.38,0,.02.42,1.73,1.35,2.66.94.94,2.78,1.47,2.8,1.47.22.06.37.27.36.5s-.17.43-.4.47c-.02,0-1.65.36-2.68,1.39-1.03,1.03-1.43,2.72-1.43,2.74-.05.22-.25.38-.48.39,0,0,0,0,0,0ZM2.4,5.48c.64.28,1.4.7,1.94,1.24.5.5.89,1.19,1.15,1.79.27-.6.66-1.28,1.22-1.84.55-.55,1.22-.93,1.8-1.19-.63-.29-1.35-.69-1.88-1.22-.5-.5-.88-1.16-1.14-1.75-.26.58-.62,1.24-1.08,1.7-.52.52-1.33.96-2.02,1.27Z"/>
  </g>
  <g id="sparkle2">
    <path class="cls-1" d="M11.71,15.2c-.23,0-.43-.15-.48-.37,0-.01-.36-1.36-1.05-2.05s-2.09-1.09-2.1-1.09c-.21-.06-.36-.25-.36-.47,0-.22.13-.42.34-.49.42-.14,1.64-.62,2.18-1.16.53-.53.89-1.62.99-1.99.06-.22.26-.33.49-.38.23,0,.43.16.48.38,0,.01.32,1.31,1.02,2.02s2.11,1.11,2.13,1.12c.22.06.37.27.36.5,0,.23-.17.43-.4.47-.01,0-1.26.27-2.03,1.05s-1.08,2.06-1.08,2.07c-.05.22-.25.38-.48.39h0ZM9.56,11.18c.46.22.96.51,1.33.88.34.34.61.79.82,1.21.21-.42.49-.87.87-1.25.37-.37.81-.65,1.22-.85-.44-.22-.92-.51-1.28-.87-.34-.34-.61-.77-.8-1.17-.2.4-.45.82-.76,1.14-.36.36-.9.67-1.38.91Z"/>
  </g>
</svg>